<?xml version="1.0" standalone="no"?>
<!DOCTYPE svg PUBLIC "-//W3C//DTD SVG 20010904//EN"
 "http://www.w3.org/TR/2001/REC-SVG-20010904/DTD/svg10.dtd">
<svg version="1.0" xmlns="http://www.w3.org/2000/svg"
 width="512.000000pt" height="512.000000pt" viewBox="0 0 512.000000 512.000000"
 preserveAspectRatio="xMidYMid meet">

<g transform="translate(0.000000,512.000000) scale(0.100000,-0.100000)"
fill="#000000" stroke="none">
<path d="M2247 5104 c-291 -53 -558 -273 -670 -555 -33 -83 -54 -173 -63 -267
l-7 -72 -263 0 c-287 0 -376 -8 -499 -47 -350 -111 -617 -392 -712 -751 -22
-83 -26 -119 -27 -252 -1 -163 8 -222 58 -380 l24 -75 106 -3 106 -3 0 -247
c0 -340 18 -480 86 -692 143 -442 490 -832 921 -1037 92 -44 318 -123 351
-123 13 0 27 -22 50 -77 18 -43 55 -119 82 -170 l50 -92 153 -75 c238 -118
443 -171 702 -183 275 -12 552 44 803 162 212 101 346 201 597 447 l191 187
74 -74 74 -74 85 46 c129 69 207 127 301 223 101 103 180 226 228 353 53 143
66 214 66 377 0 163 -13 234 -66 377 -61 163 -120 244 -346 474 l-203 207 61
77 c75 96 143 232 171 350 31 126 31 304 1 430 -29 117 -106 272 -177 359
l-57 68 -106 -105 -105 -106 40 -53 c87 -114 125 -228 125 -378 0 -86 -5 -120
-26 -186 -26 -81 -84 -182 -125 -218 l-21 -19 -193 190 c-105 104 -221 210
-257 235 -154 108 -325 170 -532 193 l-57 6 -26 56 c-67 146 -222 327 -360
420 -132 89 -288 149 -442 172 -39 6 -191 11 -337 11 l-266 0 0 33 c0 58 38
185 77 260 48 90 146 192 234 240 68 38 197 77 256 77 l33 0 0 150 0 150 -42
-1 c-24 0 -78 -7 -121 -15z m228 -1223 c183 -61 326 -169 420 -316 20 -31 35
-58 33 -59 -1 -1 -28 -10 -58 -20 -131 -44 -286 -142 -392 -249 -52 -53 -146
-174 -167 -214 l-12 -23 -993 0 -994 0 -7 76 c-37 392 227 745 616 823 24 5
368 8 764 7 l720 -1 70 -24z m938 -661 c43 -10 115 -38 160 -61 78 -41 104
-64 580 -538 549 -546 572 -573 626 -736 71 -215 45 -439 -74 -630 -48 -77
-152 -189 -200 -215 l-26 -14 -941 941 -941 941 18 28 c33 50 108 125 172 170
101 73 223 120 353 137 63 9 194 -2 273 -23z m-1234 -707 c-250 -253 -317
-340 -416 -538 -93 -186 -149 -363 -174 -550 -14 -107 -17 -309 -6 -418 l8
-77 -53 20 c-212 82 -428 233 -578 405 -165 189 -277 412 -332 660 -17 75 -21
138 -25 388 l-5 297 883 0 884 0 -186 -187z m1154 -761 l738 -738 -203 -200
c-148 -146 -229 -217 -297 -263 -172 -114 -329 -181 -524 -223 -146 -31 -418
-31 -564 0 -123 27 -252 71 -354 122 l-75 38 -41 89 c-54 115 -87 214 -114
343 -29 137 -31 379 -5 520 43 236 155 479 304 660 63 76 374 390 387 390 5 0
342 -332 748 -738z"/>
</g>
</svg>
